# xmcd
#
# Track frame offsets: 
#        150
#        17635
#        38902
#        53815
#        72355
#        92803
#        111599
#        132382
#        149813
#        174489
#        191455
#        208999
#        227964
#        248357
#
# Disc length: 3558 seconds
#
# Revision: 0
# Processed by: cddbd v1.5.2PL0 Copyright (c) Steve Scherf et al.
# Submitted via: ExactAudioCopy v0.95b3
#
DISCID=d30de40e
DTITLE=Uriah Heep  - Abominog [1982]  FLAC
DYEAR=1900
DGENRE=
TTITLE0=Too Scared To Run
TTITLE1=Chasing Shadows
TTITLE2=On The Rebound
TTITLE3=Hot Night In A Cold Town
TTITLE4=Running All Night (With The Lion)
TTITLE5=That's The Way That It Is
TTITLE6=Prisoner
TTITLE7=Hot Persuasion
TTITLE8=Sell Your Soul
TTITLE9=Think It Over (vocals Peter Goalby)
TTITLE10=Tin Soldier
TTITLE11=Son Of A Bitch
TTITLE12=That's The Way That It Is
TTITLE13=Hot Persuasion
EXTD=
EXTT0=
EXTT1=
EXTT2=
EXTT3=
EXTT4=
EXTT5=
EXTT6=
EXTT7=
EXTT8=
EXTT9=
EXTT10=
EXTT11=
EXTT12=
EXTT13=
PLAYORDER=
